<svg version="1.0" xmlns="http://www.w3.org/2000/svg" viewBox="0 0 355 267" style="enable-background:new 0 0 355 267" xml:space="preserve"><linearGradient id="a" gradientUnits="userSpaceOnUse" x1="175.82" y1="256.483" x2="175.82" y2="15.351"><stop offset="0" style="stop-color:#6f52ee"/><stop offset="1" style="stop-color:#da57fc"/></linearGradient><path d="M17.89 76.39c6.22-10.36 18.56-13.04 23-14 14.16-3.07 17.69 3.34 36 2 13.94-1.02 24.12-5.63 27-7 6.73-3.2 12.24-7.51 23-16 13.13-10.36 12.79-11.49 18-15 15.52-10.45 33.04-10.14 41-10 6.72.12 32.22.56 51 18 13.22 12.27 8.08 18.99 30 59 14.17 25.85 20.5 30.68 24 33 15.13 10.02 25.44 5.07 36 16 8.65 8.95 13.76 24.72 8 36-5.81 11.39-20.56 13.99-32 16-19.97 3.51-24.57-3.04-46 0-8.06 1.14-20.61 2.92-33 11-16.42 10.7-13.66 20.13-31 34-6.68 5.34-18.71 14.96-36 16-15.37.92-33.3-5.03-44-18-8.61-10.45-10.74-23.3-15-49-2.64-15.93-1.88-21.12-7-28-6.93-9.31-14.52-8.13-31-16-9.73-4.64-35.26-16.83-43-40-1.26-3.79-5.65-16.92 1-28z" style="fill:none;stroke:url(#a);stroke-width:2"/></svg>