<?xml version="1.0" encoding="utf-8"?>
<!-- Generator: Adobe Illustrator 24.1.2, SVG Export Plug-In . SVG Version: 6.00 Build 0)  -->
<svg version="1.1" id="Layer_1" xmlns="http://www.w3.org/2000/svg" xmlns:xlink="http://www.w3.org/1999/xlink" x="0px" y="0px"
	 viewBox="0 0 355 267" style="enable-background:new 0 0 355 267;" xml:space="preserve">
<style type="text/css">
	.st0{fill:none;stroke:url(#SVGID_1_);stroke-width:1;}
</style>
<linearGradient id="SVGID_1_" gradientUnits="userSpaceOnUse" x1="175.8199" y1="178.7647" x2="175.8199" y2="93.0686">
	<stop  offset="0" style="stop-color:#6F52EE"/>
	<stop  offset="1" style="stop-color:#DA57FC"/>
</linearGradient>
<path class="st0" d="M120.55,115.08c2.18-3.63,6.5-4.56,8.05-4.9c4.96-1.07,6.19,1.17,12.6,0.7c4.88-0.36,8.44-1.97,9.45-2.45
	c2.35-1.12,4.28-2.63,8.05-5.6c4.6-3.63,4.48-4.02,6.3-5.25c5.43-3.66,11.56-3.55,14.35-3.5c2.35,0.04,11.28,0.2,17.85,6.3
	c4.63,4.29,2.83,6.65,10.5,20.65c4.96,9.05,7.17,10.74,8.4,11.55c5.3,3.51,8.9,1.77,12.6,5.6c3.03,3.13,4.81,8.65,2.8,12.6
	c-2.04,3.99-7.2,4.9-11.2,5.6c-6.99,1.23-8.6-1.06-16.1,0c-2.82,0.4-7.21,1.02-11.55,3.85c-5.75,3.75-4.78,7.05-10.85,11.9
	c-2.34,1.87-6.55,5.24-12.6,5.6c-5.38,0.32-11.65-1.76-15.4-6.3c-3.02-3.66-3.76-8.15-5.25-17.15c-0.92-5.57-0.66-7.39-2.45-9.8
	c-2.42-3.26-5.08-2.85-10.85-5.6c-3.41-1.63-12.34-5.89-15.05-14C119.75,123.56,118.22,118.96,120.55,115.08z"/>
</svg>

