

<svg  xmlns="http://www.w3.org/2000/svg" xmlns:xlink="http://www.w3.org/1999/xlink" x="0px" y="0px" width="100%" id="blobSvg"
	 viewBox="0 0 355 267" style="enable-background:new 0 0 355 267;" xml:space="preserve">
<style type="text/css">
	.st0{fill:none;stroke:url(#SVGID_1_);stroke-width:2;}
</style>
<linearGradient id="SVGID_1_" gradientUnits="userSpaceOnUse" x1="175.8199" y1="256.4825" x2="175.8199" y2="15.3508">
	<stop  offset="0" style="stop-color:#6F52EE"/>
	<stop  offset="1" style="stop-color:#DA57FC"/>
</linearGradient>
<path class="st0" d="M17.89,76.39c6.22-10.36,18.56-13.04,23-14c14.16-3.07,17.69,3.34,36,2c13.94-1.02,24.12-5.63,27-7
	c6.73-3.2,12.24-7.51,23-16c13.13-10.36,12.79-11.49,18-15c15.52-10.45,33.04-10.14,41-10c6.72,0.12,32.22,0.56,51,18
	c13.22,12.27,8.08,18.99,30,59c14.17,25.85,20.5,30.68,24,33c15.13,10.02,25.44,5.07,36,16c8.65,8.95,13.76,24.72,8,36
	c-5.81,11.39-20.56,13.99-32,16c-19.97,3.51-24.57-3.04-46,0c-8.06,1.14-20.61,2.92-33,11c-16.42,10.7-13.66,20.13-31,34
	c-6.68,5.34-18.71,14.96-36,16c-15.37,0.92-33.3-5.03-44-18c-8.61-10.45-10.74-23.3-15-49c-2.64-15.93-1.88-21.12-7-28
	c-6.93-9.31-14.52-8.13-31-16c-9.73-4.64-35.26-16.83-43-40C15.63,100.6,11.24,87.47,17.89,76.39z"/>
</svg>
