<?xml version="1.0" encoding="utf-8"?>
<!-- Generator: Adobe Illustrator 24.1.2, SVG Export Plug-In . SVG Version: 6.00 Build 0)  -->
<svg version="1.1" id="Layer_1" xmlns="http://www.w3.org/2000/svg" xmlns:xlink="http://www.w3.org/1999/xlink" x="0px" y="0px"
	 viewBox="0 0 355 267" style="enable-background:new 0 0 355 267;" xml:space="preserve" class="mrotate">
<style type="text/css">
	.st0{fill:none;stroke:url(#SVGID_1_);}
</style>
<linearGradient id="SVGID_1_" gradientUnits="userSpaceOnUse" x1="175.8755" y1="196.2829" x2="175.8755" y2="75.7171">
	<stop  offset="0" style="stop-color:#6F52EE"/>
	<stop  offset="1" style="stop-color:#DA57FC"/>
</linearGradient>
<path class="st0" d="M96.91,106.24c3.11-5.18,9.28-6.52,11.5-7c7.08-1.54,8.84,1.67,18,1c6.97-0.51,12.06-2.81,13.5-3.5
	c3.36-1.6,6.12-3.76,11.5-8c6.56-5.18,6.4-5.75,9-7.5c7.76-5.22,16.52-5.07,20.5-5c3.36,0.06,16.11,0.28,25.5,9
	c6.61,6.13,4.04,9.5,15,29.5c7.08,12.93,10.25,15.34,12,16.5c7.56,5.01,12.72,2.53,18,8c4.32,4.48,6.88,12.36,4,18
	c-2.91,5.7-10.28,6.99-16,8c-9.98,1.76-12.29-1.52-23,0c-4.03,0.57-10.3,1.46-16.5,5.5c-8.21,5.35-6.83,10.07-15.5,17
	c-3.34,2.67-9.35,7.48-18,8c-7.68,0.46-16.65-2.51-22-9c-4.31-5.22-5.37-11.65-7.5-24.5c-1.32-7.96-0.94-10.56-3.5-14
	c-3.46-4.65-7.26-4.07-15.5-8c-4.86-2.32-17.63-8.41-21.5-20C95.78,118.34,93.59,111.78,96.91,106.24z"/>
</svg>

