<?xml version="1.0" encoding="utf-8"?>
<!-- Generator: Adobe Illustrator 24.1.2, SVG Export Plug-In . SVG Version: 6.00 Build 0)  -->
<svg version="1.1" id="Layer_1" xmlns="http://www.w3.org/2000/svg" xmlns:xlink="http://www.w3.org/1999/xlink" x="0px" y="0px"
	 viewBox="0 0 55.9 39.5" style="enable-background:new 0 0 55.9 39.5;" xml:space="preserve">
<style type="text/css">
	.st0{fill:none;stroke:url(#SVGID_1_);stroke-width:0.25;}
</style>
<linearGradient id="SVGID_1_" gradientUnits="userSpaceOnUse" x1="29.1178" y1="79.8171" x2="29.1178" y2="117.0809" gradientTransform="matrix(1 0 0 -1 0 118.3529)">
	<stop  offset="0" style="stop-color:#6F52EE"/>
	<stop  offset="1" style="stop-color:#DA57FC"/>
</linearGradient>
<path class="st0" d="M4.7,10.7c1-1.6,2.9-2,3.6-2.2C10.4,8,11,9,13.8,8.8C16,8.7,17.5,8,18,7.7c1-0.5,1.9-1.2,3.6-2.5
	c2-1.6,2-1.8,2.8-2.3c2.4-1.6,5.1-1.6,6.3-1.5c1,0,5,0.1,7.9,2.8c2,1.9,1.3,2.9,4.6,9.1c2.2,4,3.2,4.7,3.7,5.1
	c2.3,1.6,3.9,0.8,5.6,2.5c1.3,1.4,2.1,3.8,1.2,5.6c-0.9,1.8-3.2,2.2-5,2.5c-3.1,0.5-3.8-0.5-7.1,0c-1.2,0.2-3.2,0.5-5.1,1.7
	c-2.5,1.7-2.1,3.1-4.8,5.3c-1,0.8-2.9,2.3-5.6,2.5c-2.4,0.1-5.2-0.8-6.8-2.8C18,34,17.7,32,17.1,28c-0.4-2.5-0.3-3.3-1.1-4.3
	c-1.1-1.4-2.2-1.3-4.8-2.5c-1.5-0.7-5.5-2.6-6.7-6.2C4.3,14.4,3.6,12.4,4.7,10.7z"/>
</svg>
