<?xml version="1.0" encoding="utf-8"?>
<!-- Generator: Adobe Illustrator 24.1.2, SVG Export Plug-In . SVG Version: 6.00 Build 0)  -->
<svg version="1.1" id="Layer_1" xmlns="http://www.w3.org/2000/svg" xmlns:xlink="http://www.w3.org/1999/xlink" x="0px" y="0px"
	 viewBox="0 0 99 14" style="enable-background:new 0 0 99 14;" xml:space="preserve">
<style type="text/css">
	.st0{fill:none;stroke:#000000;stroke-width:0.5;stroke-miterlimit:10;}
	.st1{font-family:'Impact';}
	.st2{font-size:12px;}
	.st3{fill:none;stroke:url(#SVGID_1_);stroke-width:0.5;stroke-miterlimit:10;}
	.st4{fill:none;stroke:url(#SVGID_2_);stroke-width:0.5;stroke-miterlimit:10;}
	.st5{fill:none;stroke:url(#SVGID_3_);stroke-width:0.5;stroke-miterlimit:10;}
	.st6{fill:none;stroke:url(#SVGID_4_);stroke-width:0.5;stroke-miterlimit:10;}
	.st7{fill:none;stroke:url(#SVGID_5_);stroke-width:0.5;stroke-miterlimit:10;}
	.st8{fill:none;stroke:url(#SVGID_6_);stroke-width:0.5;stroke-miterlimit:10;}
	.st9{fill:none;stroke:url(#SVGID_7_);stroke-width:0.5;stroke-miterlimit:10;}
	.st10{fill:none;stroke:url(#SVGID_8_);stroke-width:0.5;stroke-miterlimit:10;}
	.st11{fill:none;stroke:url(#SVGID_9_);stroke-width:0.5;stroke-miterlimit:10;}
	.st12{fill:none;stroke:url(#SVGID_10_);stroke-width:0.5;stroke-miterlimit:10;}
	.st13{fill:none;stroke:url(#SVGID_11_);stroke-width:0.5;stroke-miterlimit:10;}
	.st14{fill:none;stroke:url(#SVGID_12_);stroke-width:0.5;stroke-miterlimit:10;}
	.st15{fill:none;stroke:url(#SVGID_13_);stroke-width:0.5;stroke-miterlimit:10;}
	.st16{fill:none;stroke:url(#SVGID_14_);stroke-width:0.5;stroke-miterlimit:10;}
	.st17{fill:none;stroke:url(#SVGID_15_);stroke-width:0.5;stroke-miterlimit:10;}
	.st18{fill:none;stroke:url(#SVGID_16_);stroke-width:0.5;stroke-miterlimit:10;}
	.st19{fill:none;stroke:url(#SVGID_17_);stroke-width:0.5;stroke-miterlimit:10;}
</style>
<g>
	<text transform="matrix(1 0 0 1 6.1665 10.1665)" class="st0 st1 st2">Sell extraordinary</text>
	<g>
		<linearGradient id="SVGID_1_" gradientUnits="userSpaceOnUse" x1="50.4815" y1="0.231" x2="50.4815" y2="11.5063">
			<stop  offset="0" style="stop-color:#C84FE5"/>
			<stop  offset="0.1722" style="stop-color:#BF4FE5"/>
			<stop  offset="0.4592" style="stop-color:#A54FE5"/>
			<stop  offset="0.8235" style="stop-color:#7C4FE5"/>
			<stop  offset="1" style="stop-color:#654FE5"/>
		</linearGradient>
		<path class="st3" d="M11.89,3.55H9.59v-0.7c0-0.33-0.03-0.54-0.09-0.63S9.35,2.09,9.21,2.09c-0.15,0-0.26,0.06-0.34,0.18
			C8.8,2.39,8.76,2.57,8.76,2.82c0,0.32,0.04,0.56,0.13,0.72c0.08,0.16,0.31,0.35,0.7,0.58c1.1,0.65,1.79,1.19,2.07,1.6
			s0.43,1.09,0.43,2.02c0,0.68-0.08,1.17-0.24,1.49s-0.46,0.59-0.92,0.81s-0.98,0.33-1.58,0.33c-0.66,0-1.22-0.13-1.69-0.38
			S6.89,9.42,6.75,9.04S6.53,8.1,6.53,7.39V6.77h2.29v1.15c0,0.36,0.03,0.58,0.1,0.69S9.1,8.76,9.26,8.76S9.55,8.7,9.63,8.57
			s0.12-0.32,0.12-0.57c0-0.56-0.08-0.92-0.23-1.1C9.36,6.73,8.98,6.44,8.36,6.04c-0.61-0.41-1.02-0.7-1.22-0.88
			s-0.36-0.44-0.5-0.76s-0.2-0.74-0.2-1.24c0-0.73,0.09-1.26,0.28-1.59s0.49-0.6,0.9-0.79s0.91-0.28,1.5-0.28
			c0.64,0,1.19,0.1,1.64,0.31s0.75,0.47,0.9,0.78s0.22,0.85,0.22,1.6V3.55z"/>
		<linearGradient id="SVGID_2_" gradientUnits="userSpaceOnUse" x1="50.4815" y1="0.231" x2="50.4815" y2="11.5063">
			<stop  offset="0" style="stop-color:#C84FE5"/>
			<stop  offset="0.1722" style="stop-color:#BF4FE5"/>
			<stop  offset="0.4592" style="stop-color:#A54FE5"/>
			<stop  offset="0.8235" style="stop-color:#7C4FE5"/>
			<stop  offset="1" style="stop-color:#654FE5"/>
		</linearGradient>
		<path class="st4" d="M18.15,6.42h-3.06V8.1c0,0.35,0.03,0.58,0.08,0.68s0.15,0.15,0.29,0.15c0.18,0,0.3-0.07,0.36-0.2
			s0.09-0.4,0.09-0.78V6.92h2.24v0.57c0,0.48-0.03,0.85-0.09,1.11s-0.2,0.53-0.42,0.83s-0.5,0.51-0.85,0.66s-0.77,0.22-1.29,0.22
			c-0.5,0-0.94-0.07-1.32-0.22S13.5,9.75,13.29,9.5s-0.36-0.53-0.44-0.83s-0.12-0.74-0.12-1.32V5.07c0-0.68,0.09-1.22,0.28-1.61
			s0.48-0.69,0.9-0.9s0.9-0.31,1.44-0.31c0.66,0,1.21,0.13,1.64,0.38s0.73,0.59,0.91,1s0.26,1,0.26,1.75V6.42z M15.78,5.15V4.58
			c0-0.4-0.02-0.66-0.06-0.78s-0.13-0.18-0.26-0.18c-0.16,0-0.27,0.05-0.3,0.15s-0.06,0.37-0.06,0.81v0.57H15.78z"/>
		<linearGradient id="SVGID_3_" gradientUnits="userSpaceOnUse" x1="50.4815" y1="0.231" x2="50.4815" y2="11.5063">
			<stop  offset="0" style="stop-color:#C84FE5"/>
			<stop  offset="0.1722" style="stop-color:#BF4FE5"/>
			<stop  offset="0.4592" style="stop-color:#A54FE5"/>
			<stop  offset="0.8235" style="stop-color:#7C4FE5"/>
			<stop  offset="1" style="stop-color:#654FE5"/>
		</linearGradient>
		<path class="st5" d="M21.37,0.68v9.49h-2.44V0.68H21.37z"/>
		<linearGradient id="SVGID_4_" gradientUnits="userSpaceOnUse" x1="50.4815" y1="0.231" x2="50.4815" y2="11.5063">
			<stop  offset="0" style="stop-color:#C84FE5"/>
			<stop  offset="0.1722" style="stop-color:#BF4FE5"/>
			<stop  offset="0.4592" style="stop-color:#A54FE5"/>
			<stop  offset="0.8235" style="stop-color:#7C4FE5"/>
			<stop  offset="1" style="stop-color:#654FE5"/>
		</linearGradient>
		<path class="st6" d="M24.65,0.68v9.49h-2.44V0.68H24.65z"/>
		<linearGradient id="SVGID_5_" gradientUnits="userSpaceOnUse" x1="50.4815" y1="0.231" x2="50.4815" y2="11.5063">
			<stop  offset="0" style="stop-color:#C84FE5"/>
			<stop  offset="0.1722" style="stop-color:#BF4FE5"/>
			<stop  offset="0.4592" style="stop-color:#A54FE5"/>
			<stop  offset="0.8235" style="stop-color:#7C4FE5"/>
			<stop  offset="1" style="stop-color:#654FE5"/>
		</linearGradient>
		<path class="st7" d="M32.98,6.42h-3.06V8.1c0,0.35,0.03,0.58,0.08,0.68s0.15,0.15,0.29,0.15c0.18,0,0.3-0.07,0.36-0.2
			s0.09-0.4,0.09-0.78V6.92h2.24v0.57c0,0.48-0.03,0.85-0.09,1.11s-0.2,0.53-0.42,0.83s-0.5,0.51-0.85,0.66s-0.77,0.22-1.29,0.22
			c-0.5,0-0.94-0.07-1.32-0.22s-0.68-0.34-0.89-0.59s-0.36-0.53-0.44-0.83s-0.12-0.74-0.12-1.32V5.07c0-0.68,0.09-1.22,0.28-1.61
			s0.48-0.69,0.9-0.9s0.9-0.31,1.44-0.31c0.66,0,1.21,0.13,1.64,0.38s0.73,0.59,0.91,1s0.26,1,0.26,1.75V6.42z M30.61,5.15V4.58
			c0-0.4-0.02-0.66-0.06-0.78s-0.13-0.18-0.26-0.18c-0.16,0-0.27,0.05-0.3,0.15s-0.06,0.37-0.06,0.81v0.57H30.61z"/>
		<linearGradient id="SVGID_6_" gradientUnits="userSpaceOnUse" x1="50.4815" y1="0.231" x2="50.4815" y2="11.5063">
			<stop  offset="0" style="stop-color:#C84FE5"/>
			<stop  offset="0.1722" style="stop-color:#BF4FE5"/>
			<stop  offset="0.4592" style="stop-color:#A54FE5"/>
			<stop  offset="0.8235" style="stop-color:#7C4FE5"/>
			<stop  offset="1" style="stop-color:#654FE5"/>
		</linearGradient>
		<path class="st8" d="M38.45,2.39L37.5,6.11l1.14,4.06h-2.3c-0.23-1.03-0.4-1.91-0.52-2.65c-0.16,0.92-0.33,1.81-0.51,2.65h-1.98
			l1.02-4.06l-1.02-3.71h1.98c0.32,1.59,0.49,2.49,0.51,2.71c0.23-1.33,0.4-2.23,0.52-2.71H38.45z"/>
		<linearGradient id="SVGID_7_" gradientUnits="userSpaceOnUse" x1="50.4815" y1="0.231" x2="50.4815" y2="11.5063">
			<stop  offset="0" style="stop-color:#C84FE5"/>
			<stop  offset="0.1722" style="stop-color:#BF4FE5"/>
			<stop  offset="0.4592" style="stop-color:#A54FE5"/>
			<stop  offset="0.8235" style="stop-color:#7C4FE5"/>
			<stop  offset="1" style="stop-color:#654FE5"/>
		</linearGradient>
		<path class="st9" d="M41.45,1.35v1.22h0.64v1.23h-0.64v4.16c0,0.51,0.03,0.8,0.08,0.86s0.27,0.09,0.66,0.09v1.25h-0.96
			c-0.54,0-0.92-0.02-1.15-0.07s-0.43-0.15-0.61-0.31s-0.29-0.35-0.33-0.56s-0.06-0.7-0.06-1.47V3.81h-0.51V2.58h0.51V1.35H41.45z"
			/>
		<linearGradient id="SVGID_8_" gradientUnits="userSpaceOnUse" x1="50.4815" y1="0.231" x2="50.4815" y2="11.5063">
			<stop  offset="0" style="stop-color:#C84FE5"/>
			<stop  offset="0.1722" style="stop-color:#BF4FE5"/>
			<stop  offset="0.4592" style="stop-color:#A54FE5"/>
			<stop  offset="0.8235" style="stop-color:#7C4FE5"/>
			<stop  offset="1" style="stop-color:#654FE5"/>
		</linearGradient>
		<path class="st10" d="M44.98,2.39l-0.09,1.02c0.34-0.73,0.84-1.12,1.49-1.16v2.74c-0.43,0-0.75,0.06-0.96,0.18
			s-0.33,0.28-0.38,0.49s-0.07,0.69-0.07,1.44v3.07h-2.37V2.39H44.98z"/>
		<linearGradient id="SVGID_9_" gradientUnits="userSpaceOnUse" x1="50.4815" y1="0.231" x2="50.4815" y2="11.5063">
			<stop  offset="0" style="stop-color:#C84FE5"/>
			<stop  offset="0.1722" style="stop-color:#BF4FE5"/>
			<stop  offset="0.4592" style="stop-color:#A54FE5"/>
			<stop  offset="0.8235" style="stop-color:#7C4FE5"/>
			<stop  offset="1" style="stop-color:#654FE5"/>
		</linearGradient>
		<path class="st11" d="M49.02,5.4H46.8V4.88c0-0.6,0.07-1.07,0.21-1.39s0.42-0.61,0.83-0.86s0.96-0.38,1.63-0.38
			c0.8,0,1.4,0.14,1.81,0.42s0.65,0.63,0.73,1.04s0.12,1.26,0.12,2.55v3.9h-2.3V9.47c-0.14,0.28-0.33,0.49-0.56,0.63
			c-0.23,0.14-0.5,0.21-0.82,0.21c-0.41,0-0.79-0.12-1.14-0.35S46.8,9.22,46.8,8.43V7.79c0-0.58,0.09-0.98,0.28-1.19
			s0.64-0.46,1.37-0.74c0.78-0.3,1.19-0.51,1.25-0.62s0.08-0.32,0.08-0.64c0-0.41-0.03-0.67-0.09-0.79s-0.16-0.18-0.3-0.18
			c-0.16,0-0.26,0.05-0.3,0.16s-0.06,0.37-0.06,0.81V5.4z M49.77,6.47c-0.38,0.28-0.6,0.51-0.66,0.7s-0.09,0.46-0.09,0.81
			c0,0.4,0.03,0.66,0.08,0.78s0.16,0.18,0.31,0.18c0.15,0,0.25-0.05,0.29-0.14s0.07-0.33,0.07-0.72V6.47z"/>
		<linearGradient id="SVGID_10_" gradientUnits="userSpaceOnUse" x1="50.4815" y1="0.231" x2="50.4815" y2="11.5063">
			<stop  offset="0" style="stop-color:#C84FE5"/>
			<stop  offset="0.1722" style="stop-color:#BF4FE5"/>
			<stop  offset="0.4592" style="stop-color:#A54FE5"/>
			<stop  offset="0.8235" style="stop-color:#7C4FE5"/>
			<stop  offset="1" style="stop-color:#654FE5"/>
		</linearGradient>
		<path class="st12" d="M58.31,5.12v1.9c0,0.7-0.04,1.21-0.11,1.54s-0.22,0.63-0.45,0.91s-0.53,0.49-0.89,0.63s-0.78,0.2-1.25,0.2
			c-0.52,0-0.97-0.06-1.33-0.17s-0.65-0.29-0.85-0.52S53.1,9.1,53.01,8.77s-0.13-0.83-0.13-1.49V5.29c0-0.72,0.08-1.29,0.23-1.69
			s0.44-0.73,0.84-0.98s0.93-0.37,1.56-0.37c0.53,0,0.99,0.08,1.37,0.24s0.67,0.36,0.88,0.62s0.35,0.52,0.42,0.79
			S58.31,4.57,58.31,5.12z M55.94,4.54c0-0.4-0.02-0.65-0.06-0.75s-0.13-0.16-0.28-0.16s-0.23,0.05-0.28,0.16s-0.07,0.35-0.07,0.75
			v3.51c0,0.37,0.02,0.61,0.07,0.72s0.14,0.17,0.28,0.17c0.14,0,0.23-0.05,0.28-0.15s0.07-0.32,0.07-0.66V4.54z"/>
		<linearGradient id="SVGID_11_" gradientUnits="userSpaceOnUse" x1="50.4815" y1="0.231" x2="50.4815" y2="11.5063">
			<stop  offset="0" style="stop-color:#C84FE5"/>
			<stop  offset="0.1722" style="stop-color:#BF4FE5"/>
			<stop  offset="0.4592" style="stop-color:#A54FE5"/>
			<stop  offset="0.8235" style="stop-color:#7C4FE5"/>
			<stop  offset="1" style="stop-color:#654FE5"/>
		</linearGradient>
		<path class="st13" d="M61.46,2.39l-0.09,1.02c0.34-0.73,0.84-1.12,1.49-1.16v2.74c-0.43,0-0.75,0.06-0.96,0.18
			s-0.33,0.28-0.38,0.49s-0.07,0.69-0.07,1.44v3.07h-2.37V2.39H61.46z"/>
		<linearGradient id="SVGID_12_" gradientUnits="userSpaceOnUse" x1="50.4815" y1="0.231" x2="50.4815" y2="11.5063">
			<stop  offset="0" style="stop-color:#C84FE5"/>
			<stop  offset="0.1722" style="stop-color:#BF4FE5"/>
			<stop  offset="0.4592" style="stop-color:#A54FE5"/>
			<stop  offset="0.8235" style="stop-color:#7C4FE5"/>
			<stop  offset="1" style="stop-color:#654FE5"/>
		</linearGradient>
		<path class="st14" d="M68.77,0.68v9.49H66.4V9.6c-0.23,0.23-0.46,0.41-0.71,0.53c-0.25,0.12-0.51,0.18-0.79,0.18
			c-0.37,0-0.69-0.1-0.96-0.29S63.5,9.6,63.43,9.35s-0.11-0.67-0.11-1.24V4.47c0-0.6,0.04-1.02,0.11-1.27s0.25-0.47,0.52-0.66
			s0.6-0.28,0.98-0.28c0.29,0,0.56,0.05,0.81,0.16c0.24,0.11,0.47,0.26,0.67,0.48v-2.2H68.77z M66.4,4.35
			c0-0.29-0.02-0.48-0.07-0.57s-0.15-0.15-0.29-0.15c-0.14,0-0.24,0.04-0.28,0.13s-0.07,0.28-0.07,0.59v3.81
			c0,0.32,0.02,0.52,0.07,0.62s0.14,0.15,0.27,0.15c0.15,0,0.25-0.06,0.3-0.17s0.08-0.38,0.08-0.82V4.35z"/>
		<linearGradient id="SVGID_13_" gradientUnits="userSpaceOnUse" x1="50.4815" y1="0.231" x2="50.4815" y2="11.5063">
			<stop  offset="0" style="stop-color:#C84FE5"/>
			<stop  offset="0.1722" style="stop-color:#BF4FE5"/>
			<stop  offset="0.4592" style="stop-color:#A54FE5"/>
			<stop  offset="0.8235" style="stop-color:#7C4FE5"/>
			<stop  offset="1" style="stop-color:#654FE5"/>
		</linearGradient>
		<path class="st15" d="M72.06,0.68v1.24h-2.44V0.68H72.06z M72.06,2.39v7.78h-2.44V2.39H72.06z"/>
		<linearGradient id="SVGID_14_" gradientUnits="userSpaceOnUse" x1="50.4815" y1="0.231" x2="50.4815" y2="11.5063">
			<stop  offset="0" style="stop-color:#C84FE5"/>
			<stop  offset="0.1722" style="stop-color:#BF4FE5"/>
			<stop  offset="0.4592" style="stop-color:#A54FE5"/>
			<stop  offset="0.8235" style="stop-color:#7C4FE5"/>
			<stop  offset="1" style="stop-color:#654FE5"/>
		</linearGradient>
		<path class="st16" d="M75.31,2.39l-0.04,0.72c0.17-0.29,0.38-0.5,0.63-0.64c0.25-0.14,0.53-0.21,0.86-0.21c0.41,0,0.74,0.1,1,0.29
			s0.42,0.43,0.5,0.72s0.11,0.78,0.11,1.46v5.45H76V4.78c0-0.54-0.02-0.86-0.05-0.98s-0.13-0.18-0.29-0.18
			c-0.17,0-0.27,0.07-0.32,0.2s-0.06,0.5-0.06,1.08v5.26H72.9V2.39H75.31z"/>
		<linearGradient id="SVGID_15_" gradientUnits="userSpaceOnUse" x1="50.4815" y1="0.231" x2="50.4815" y2="11.5063">
			<stop  offset="0" style="stop-color:#C84FE5"/>
			<stop  offset="0.1722" style="stop-color:#BF4FE5"/>
			<stop  offset="0.4592" style="stop-color:#A54FE5"/>
			<stop  offset="0.8235" style="stop-color:#7C4FE5"/>
			<stop  offset="1" style="stop-color:#654FE5"/>
		</linearGradient>
		<path class="st17" d="M81.3,5.4h-2.22V4.88c0-0.6,0.07-1.07,0.21-1.39s0.42-0.61,0.83-0.86s0.96-0.38,1.63-0.38
			c0.8,0,1.4,0.14,1.81,0.42s0.65,0.63,0.73,1.04s0.12,1.26,0.12,2.55v3.9h-2.3V9.47c-0.14,0.28-0.33,0.49-0.56,0.63
			c-0.23,0.14-0.5,0.21-0.82,0.21c-0.41,0-0.79-0.12-1.14-0.35s-0.52-0.74-0.52-1.53V7.79c0-0.58,0.09-0.98,0.28-1.19
			s0.64-0.46,1.37-0.74c0.78-0.3,1.19-0.51,1.25-0.62s0.08-0.32,0.08-0.64c0-0.41-0.03-0.67-0.09-0.79s-0.16-0.18-0.3-0.18
			c-0.16,0-0.26,0.05-0.3,0.16S81.3,4.15,81.3,4.59V5.4z M82.05,6.47c-0.38,0.28-0.6,0.51-0.66,0.7S81.3,7.62,81.3,7.98
			c0,0.4,0.03,0.66,0.08,0.78s0.16,0.18,0.31,0.18c0.15,0,0.25-0.05,0.29-0.14s0.07-0.33,0.07-0.72V6.47z"/>
		<linearGradient id="SVGID_16_" gradientUnits="userSpaceOnUse" x1="50.4815" y1="0.231" x2="50.4815" y2="11.5063">
			<stop  offset="0" style="stop-color:#C84FE5"/>
			<stop  offset="0.1722" style="stop-color:#BF4FE5"/>
			<stop  offset="0.4592" style="stop-color:#A54FE5"/>
			<stop  offset="0.8235" style="stop-color:#7C4FE5"/>
			<stop  offset="1" style="stop-color:#654FE5"/>
		</linearGradient>
		<path class="st18" d="M87.59,2.39L87.5,3.41c0.34-0.73,0.84-1.12,1.49-1.16v2.74c-0.43,0-0.75,0.06-0.96,0.18
			s-0.33,0.28-0.38,0.49s-0.07,0.69-0.07,1.44v3.07h-2.37V2.39H87.59z"/>
		<linearGradient id="SVGID_17_" gradientUnits="userSpaceOnUse" x1="50.4815" y1="0.231" x2="50.4815" y2="11.5063">
			<stop  offset="0" style="stop-color:#C84FE5"/>
			<stop  offset="0.1722" style="stop-color:#BF4FE5"/>
			<stop  offset="0.4592" style="stop-color:#A54FE5"/>
			<stop  offset="0.8235" style="stop-color:#7C4FE5"/>
			<stop  offset="1" style="stop-color:#654FE5"/>
		</linearGradient>
		<path class="st19" d="M94.48,2.39L93.8,8.02c-0.11,0.89-0.2,1.5-0.27,1.82s-0.19,0.59-0.36,0.8s-0.4,0.37-0.7,0.47
			s-0.78,0.15-1.43,0.15H89.6v-1.24c0.37,0,0.6-0.02,0.71-0.06c0.11-0.04,0.16-0.12,0.16-0.25c0-0.06-0.05-0.33-0.15-0.81l-1.3-6.5
			h2.15l0.78,5.25l0.38-5.25H94.48z"/>
	</g>
</g>
</svg>
