<?xml version="1.0" encoding="utf-8"?>
<!-- Generator: Adobe Illustrator 24.1.2, SVG Export Plug-In . SVG Version: 6.00 Build 0)  -->
<svg version="1.1" id="Layer_1" xmlns="http://www.w3.org/2000/svg" xmlns:xlink="http://www.w3.org/1999/xlink" x="0px" y="0px"
	 viewBox="0 0 418 54" style="enable-background:new 0 0 418 54;" xml:space="preserve">
<style type="text/css">
	.st0{fill:none;stroke:url(#SVGID_1_);stroke-width:2;stroke-miterlimit:10;}
	.st1{fill:none;stroke:url(#SVGID_2_);stroke-width:2;stroke-miterlimit:10;}
	.st2{fill:none;stroke:url(#SVGID_3_);stroke-width:2;stroke-miterlimit:10;}
	.st3{fill:none;stroke:url(#SVGID_4_);stroke-width:2;stroke-miterlimit:10;}
	.st4{fill:none;stroke:url(#SVGID_5_);stroke-width:2;stroke-miterlimit:10;}
	.st5{fill:none;stroke:url(#SVGID_6_);stroke-width:2;stroke-miterlimit:10;}
	.st6{fill:none;stroke:url(#SVGID_7_);stroke-width:2;stroke-miterlimit:10;}
	.st7{fill:none;stroke:url(#SVGID_8_);stroke-width:2;stroke-miterlimit:10;}
	.st8{fill:none;stroke:url(#SVGID_9_);stroke-width:2;stroke-miterlimit:10;}
	.st9{fill:none;stroke:url(#SVGID_10_);stroke-width:2;stroke-miterlimit:10;}
	.st10{fill:none;stroke:url(#SVGID_11_);stroke-width:2;stroke-miterlimit:10;}
	.st11{fill:none;stroke:url(#SVGID_12_);stroke-width:2;stroke-miterlimit:10;}
	.st12{fill:none;stroke:url(#SVGID_13_);stroke-width:2;stroke-miterlimit:10;}
	.st13{fill:none;stroke:url(#SVGID_14_);stroke-width:2;stroke-miterlimit:10;}
	.st14{fill:none;stroke:url(#SVGID_15_);stroke-width:2;stroke-miterlimit:10;}
	.st15{fill:none;stroke:url(#SVGID_16_);stroke-width:2;stroke-miterlimit:10;}
	.st16{fill:none;stroke:url(#SVGID_17_);stroke-width:2;stroke-miterlimit:10;}
</style>
<g>
	<g>
		<linearGradient id="SVGID_1_" gradientUnits="userSpaceOnUse" x1="208.729" y1="2.1343" x2="208.729" y2="52.4194">
			<stop  offset="0" style="stop-color:#C84FE5"/>
			<stop  offset="0.1722" style="stop-color:#BF4FE5"/>
			<stop  offset="0.4592" style="stop-color:#A54FE5"/>
			<stop  offset="0.8235" style="stop-color:#7C4FE5"/>
			<stop  offset="1" style="stop-color:#654FE5"/>
		</linearGradient>
		<path class="st0" d="M28.69,16.46H18v-3.28c0-1.53-0.14-2.51-0.41-2.93c-0.27-0.42-0.73-0.63-1.37-0.63
			c-0.69,0-1.22,0.28-1.57,0.85c-0.36,0.57-0.53,1.42-0.53,2.57c0,1.48,0.2,2.59,0.6,3.34c0.38,0.75,1.47,1.65,3.25,2.71
			c5.12,3.04,8.35,5.54,9.68,7.49c1.33,1.95,2,5.1,2,9.43c0,3.15-0.37,5.48-1.11,6.97c-0.74,1.5-2.17,2.75-4.28,3.76
			c-2.11,1.01-4.58,1.52-7.38,1.52c-3.08,0-5.71-0.58-7.89-1.75c-2.18-1.17-3.6-2.65-4.28-4.46c-0.67-1.8-1.01-4.37-1.01-7.68v-2.9
			h10.69v5.39c0,1.66,0.15,2.73,0.45,3.2c0.3,0.47,0.83,0.71,1.6,0.71s1.33-0.3,1.71-0.9c0.37-0.6,0.56-1.49,0.56-2.68
			c0-2.61-0.36-4.31-1.07-5.11c-0.73-0.8-2.52-2.14-5.39-4.02c-2.86-1.9-4.76-3.27-5.69-4.13c-0.93-0.86-1.7-2.04-2.31-3.55
			c-0.61-1.51-0.92-3.45-0.92-5.8c0-3.39,0.43-5.87,1.3-7.44C5.5,5.57,6.9,4.34,8.84,3.46c1.93-0.88,4.27-1.33,7-1.33
			c2.99,0,5.54,0.48,7.64,1.45c2.11,0.97,3.5,2.18,4.18,3.65c0.68,1.47,1.03,3.96,1.03,7.48V16.46z"/>
		<linearGradient id="SVGID_2_" gradientUnits="userSpaceOnUse" x1="208.729" y1="2.1343" x2="208.729" y2="52.4194">
			<stop  offset="0" style="stop-color:#C84FE5"/>
			<stop  offset="0.1722" style="stop-color:#BF4FE5"/>
			<stop  offset="0.4592" style="stop-color:#A54FE5"/>
			<stop  offset="0.8235" style="stop-color:#7C4FE5"/>
			<stop  offset="1" style="stop-color:#654FE5"/>
		</linearGradient>
		<path class="st1" d="M57.95,29.83h-14.3v7.85c0,1.64,0.12,2.7,0.36,3.17c0.24,0.47,0.69,0.71,1.37,0.71c0.84,0,1.4-0.31,1.68-0.94
			c0.28-0.63,0.42-1.85,0.42-3.65v-4.79h10.47v2.68c0,2.24-0.14,3.96-0.42,5.17c-0.28,1.2-0.94,2.49-1.98,3.86s-2.36,2.39-3.95,3.08
			c-1.6,0.68-3.6,1.03-6,1.03c-2.33,0-4.39-0.34-6.18-1.01c-1.79-0.67-3.18-1.6-4.17-2.78c-0.99-1.18-1.68-2.47-2.06-3.88
			c-0.38-1.41-0.57-3.47-0.57-6.17V23.57c0-3.17,0.43-5.67,1.29-7.51c0.86-1.83,2.26-3.24,4.21-4.21c1.95-0.98,4.19-1.46,6.73-1.46
			c3.1,0,5.66,0.59,7.67,1.76c2.01,1.18,3.43,2.73,4.24,4.68c0.81,1.94,1.22,4.67,1.22,8.19V29.83z M46.87,23.93v-2.65
			c0-1.88-0.1-3.09-0.3-3.64c-0.2-0.55-0.61-0.82-1.23-0.82c-0.77,0-1.24,0.23-1.42,0.7c-0.18,0.46-0.27,1.72-0.27,3.76v2.65H46.87z
			"/>
		<linearGradient id="SVGID_3_" gradientUnits="userSpaceOnUse" x1="208.729" y1="2.1343" x2="208.729" y2="52.4194">
			<stop  offset="0" style="stop-color:#C84FE5"/>
			<stop  offset="0.1722" style="stop-color:#BF4FE5"/>
			<stop  offset="0.4592" style="stop-color:#A54FE5"/>
			<stop  offset="0.8235" style="stop-color:#7C4FE5"/>
			<stop  offset="1" style="stop-color:#654FE5"/>
		</linearGradient>
		<path class="st2" d="M72.93,3.06v44.27H61.55V3.06H72.93z"/>
		<linearGradient id="SVGID_4_" gradientUnits="userSpaceOnUse" x1="208.729" y1="2.1343" x2="208.729" y2="52.4194">
			<stop  offset="0" style="stop-color:#C84FE5"/>
			<stop  offset="0.1722" style="stop-color:#BF4FE5"/>
			<stop  offset="0.4592" style="stop-color:#A54FE5"/>
			<stop  offset="0.8235" style="stop-color:#7C4FE5"/>
			<stop  offset="1" style="stop-color:#654FE5"/>
		</linearGradient>
		<path class="st3" d="M88.27,3.06v44.27H76.89V3.06H88.27z"/>
		<linearGradient id="SVGID_5_" gradientUnits="userSpaceOnUse" x1="208.729" y1="2.1343" x2="208.729" y2="52.4194">
			<stop  offset="0" style="stop-color:#C84FE5"/>
			<stop  offset="0.1722" style="stop-color:#BF4FE5"/>
			<stop  offset="0.4592" style="stop-color:#A54FE5"/>
			<stop  offset="0.8235" style="stop-color:#7C4FE5"/>
			<stop  offset="1" style="stop-color:#654FE5"/>
		</linearGradient>
		<path class="st4" d="M127.13,29.83h-14.3v7.85c0,1.64,0.12,2.7,0.36,3.17c0.24,0.47,0.69,0.71,1.37,0.71
			c0.84,0,1.4-0.31,1.68-0.94c0.28-0.63,0.42-1.85,0.42-3.65v-4.79h10.47v2.68c0,2.24-0.14,3.96-0.42,5.17
			c-0.28,1.2-0.94,2.49-1.98,3.86s-2.36,2.39-3.95,3.08c-1.6,0.68-3.6,1.03-6,1.03c-2.33,0-4.39-0.34-6.18-1.01
			c-1.79-0.67-3.18-1.6-4.17-2.78c-0.99-1.18-1.68-2.47-2.06-3.88c-0.38-1.41-0.57-3.47-0.57-6.17V23.57c0-3.17,0.43-5.67,1.29-7.51
			c0.86-1.83,2.26-3.24,4.21-4.21c1.95-0.98,4.19-1.46,6.73-1.46c3.1,0,5.66,0.59,7.67,1.76c2.01,1.18,3.43,2.73,4.24,4.68
			c0.81,1.94,1.22,4.67,1.22,8.19V29.83z M116.05,23.93v-2.65c0-1.88-0.1-3.09-0.3-3.64c-0.2-0.55-0.61-0.82-1.23-0.82
			c-0.77,0-1.24,0.23-1.42,0.7c-0.18,0.46-0.27,1.72-0.27,3.76v2.65H116.05z"/>
		<linearGradient id="SVGID_6_" gradientUnits="userSpaceOnUse" x1="208.729" y1="2.1343" x2="208.729" y2="52.4194">
			<stop  offset="0" style="stop-color:#C84FE5"/>
			<stop  offset="0.1722" style="stop-color:#BF4FE5"/>
			<stop  offset="0.4592" style="stop-color:#A54FE5"/>
			<stop  offset="0.8235" style="stop-color:#7C4FE5"/>
			<stop  offset="1" style="stop-color:#654FE5"/>
		</linearGradient>
		<path class="st5" d="M152.64,11.05l-4.4,17.34l5.33,18.95h-10.74c-1.07-4.79-1.88-8.91-2.43-12.36c-0.74,4.31-1.54,8.43-2.4,12.36
			h-9.24l4.76-18.95l-4.76-17.34H138c1.49,7.42,2.29,11.63,2.4,12.63c1.07-6.19,1.88-10.4,2.43-12.63H152.64z"/>
		<linearGradient id="SVGID_7_" gradientUnits="userSpaceOnUse" x1="208.729" y1="2.1343" x2="208.729" y2="52.4194">
			<stop  offset="0" style="stop-color:#C84FE5"/>
			<stop  offset="0.1722" style="stop-color:#BF4FE5"/>
			<stop  offset="0.4592" style="stop-color:#A54FE5"/>
			<stop  offset="0.8235" style="stop-color:#7C4FE5"/>
			<stop  offset="1" style="stop-color:#654FE5"/>
		</linearGradient>
		<path class="st6" d="M166.66,6.21v5.71h2.98v5.74h-2.98v19.41c0,2.39,0.12,3.72,0.37,3.99s1.27,0.41,3.08,0.41v5.85h-4.46
			c-2.52,0-4.31-0.1-5.39-0.31c-1.08-0.21-2.02-0.69-2.84-1.45c-0.82-0.76-1.33-1.62-1.53-2.6c-0.2-0.98-0.3-3.27-0.3-6.88V17.67
			h-2.38v-5.74h2.38V6.21H166.66z"/>
		<linearGradient id="SVGID_8_" gradientUnits="userSpaceOnUse" x1="208.729" y1="2.1343" x2="208.729" y2="52.4194">
			<stop  offset="0" style="stop-color:#C84FE5"/>
			<stop  offset="0.1722" style="stop-color:#BF4FE5"/>
			<stop  offset="0.4592" style="stop-color:#A54FE5"/>
			<stop  offset="0.8235" style="stop-color:#7C4FE5"/>
			<stop  offset="1" style="stop-color:#654FE5"/>
		</linearGradient>
		<path class="st7" d="M183.13,11.05l-0.44,4.77c1.6-3.42,3.93-5.23,6.97-5.43v12.77c-2.02,0-3.51,0.27-4.46,0.82
			c-0.95,0.55-1.53,1.31-1.75,2.28c-0.22,0.98-0.33,3.22-0.33,6.74v14.33h-11.05V11.05H183.13z"/>
		<linearGradient id="SVGID_9_" gradientUnits="userSpaceOnUse" x1="208.729" y1="2.1343" x2="208.729" y2="52.4194">
			<stop  offset="0" style="stop-color:#C84FE5"/>
			<stop  offset="0.1722" style="stop-color:#BF4FE5"/>
			<stop  offset="0.4592" style="stop-color:#A54FE5"/>
			<stop  offset="0.8235" style="stop-color:#7C4FE5"/>
			<stop  offset="1" style="stop-color:#654FE5"/>
		</linearGradient>
		<path class="st8" d="M201.99,25.1h-10.36v-2.43c0-2.81,0.32-4.97,0.97-6.49c0.65-1.52,1.95-2.87,3.9-4.03
			c1.95-1.17,4.48-1.75,7.6-1.75c3.74,0,6.55,0.66,8.45,1.98c1.9,1.32,3.04,2.94,3.42,4.87c0.38,1.92,0.57,5.88,0.57,11.88v18.21
			h-10.75V44.1c-0.67,1.3-1.54,2.27-2.61,2.92c-1.07,0.65-2.34,0.97-3.81,0.97c-1.93,0-3.71-0.54-5.32-1.63s-2.42-3.46-2.42-7.12
			v-2.98c0-2.72,0.43-4.57,1.29-5.55c0.86-0.98,2.98-2.13,6.37-3.45c3.63-1.42,5.57-2.38,5.82-2.87c0.25-0.49,0.38-1.49,0.38-3.01
			c0-1.9-0.14-3.13-0.42-3.71c-0.28-0.57-0.75-0.86-1.41-0.86c-0.75,0-1.21,0.24-1.39,0.72c-0.18,0.48-0.27,1.74-0.27,3.76V25.1z
			 M205.49,30.08c-1.77,1.29-2.79,2.38-3.08,3.25c-0.28,0.88-0.42,2.13-0.42,3.77c0,1.88,0.12,3.09,0.37,3.64s0.73,0.82,1.46,0.82
			c0.69,0,1.14-0.21,1.35-0.64c0.21-0.43,0.31-1.55,0.31-3.38V30.08z"/>
		<linearGradient id="SVGID_10_" gradientUnits="userSpaceOnUse" x1="208.729" y1="2.1343" x2="208.729" y2="52.4194">
			<stop  offset="0" style="stop-color:#C84FE5"/>
			<stop  offset="0.1722" style="stop-color:#BF4FE5"/>
			<stop  offset="0.4592" style="stop-color:#A54FE5"/>
			<stop  offset="0.8235" style="stop-color:#7C4FE5"/>
			<stop  offset="1" style="stop-color:#654FE5"/>
		</linearGradient>
		<path class="st9" d="M245.33,23.79v8.89c0,3.26-0.16,5.66-0.49,7.18c-0.33,1.52-1.03,2.94-2.11,4.27
			c-1.08,1.32-2.46,2.3-4.14,2.93c-1.69,0.63-3.62,0.94-5.81,0.94c-2.44,0-4.51-0.27-6.21-0.81s-3.01-1.35-3.95-2.43
			c-0.94-1.08-1.61-2.4-2.01-3.94c-0.4-1.54-0.6-3.85-0.6-6.93v-9.3c0-3.37,0.36-6.01,1.09-7.9c0.73-1.9,2.04-3.42,3.94-4.57
			c1.9-1.15,4.32-1.72,7.27-1.72c2.48,0,4.61,0.37,6.38,1.11s3.15,1.7,4.12,2.88c0.97,1.19,1.63,2.41,1.98,3.66
			S245.33,21.22,245.33,23.79z M234.29,21.06c0-1.86-0.1-3.03-0.3-3.51c-0.2-0.48-0.63-0.72-1.29-0.72s-1.09,0.24-1.31,0.72
			c-0.22,0.48-0.33,1.65-0.33,3.51v16.38c0,1.71,0.11,2.83,0.33,3.35s0.65,0.78,1.29,0.78c0.66,0,1.09-0.24,1.3-0.71
			c0.21-0.47,0.31-1.49,0.31-3.06V21.06z"/>
		<linearGradient id="SVGID_11_" gradientUnits="userSpaceOnUse" x1="208.729" y1="2.1343" x2="208.729" y2="52.4194">
			<stop  offset="0" style="stop-color:#C84FE5"/>
			<stop  offset="0.1722" style="stop-color:#BF4FE5"/>
			<stop  offset="0.4592" style="stop-color:#A54FE5"/>
			<stop  offset="0.8235" style="stop-color:#7C4FE5"/>
			<stop  offset="1" style="stop-color:#654FE5"/>
		</linearGradient>
		<path class="st10" d="M260.02,11.05l-0.44,4.77c1.6-3.42,3.93-5.23,6.97-5.43v12.77c-2.02,0-3.51,0.27-4.46,0.82
			c-0.95,0.55-1.53,1.31-1.75,2.28c-0.22,0.98-0.33,3.22-0.33,6.74v14.33h-11.05V11.05H260.02z"/>
		<linearGradient id="SVGID_12_" gradientUnits="userSpaceOnUse" x1="208.729" y1="2.1343" x2="208.729" y2="52.4194">
			<stop  offset="0" style="stop-color:#C84FE5"/>
			<stop  offset="0.1722" style="stop-color:#BF4FE5"/>
			<stop  offset="0.4592" style="stop-color:#A54FE5"/>
			<stop  offset="0.8235" style="stop-color:#7C4FE5"/>
			<stop  offset="1" style="stop-color:#654FE5"/>
		</linearGradient>
		<path class="st11" d="M294.14,3.06v44.27h-11.05V44.7c-1.06,1.1-2.17,1.92-3.34,2.47c-1.17,0.55-2.39,0.82-3.66,0.82
			c-1.71,0-3.2-0.45-4.46-1.35s-2.06-1.95-2.42-3.13c-0.36-1.18-0.53-3.12-0.53-5.8V20.73c0-2.79,0.18-4.77,0.53-5.93
			c0.36-1.17,1.17-2.19,2.45-3.08c1.28-0.88,2.8-1.33,4.57-1.33c1.37,0,2.62,0.25,3.76,0.74c1.14,0.49,2.17,1.23,3.1,2.22V3.06
			H294.14z M283.09,20.18c0-1.33-0.11-2.22-0.34-2.68c-0.23-0.46-0.68-0.68-1.35-0.68c-0.66,0-1.1,0.21-1.33,0.62
			c-0.23,0.41-0.34,1.33-0.34,2.75v17.77c0,1.48,0.11,2.45,0.33,2.91s0.64,0.7,1.26,0.7c0.71,0,1.18-0.26,1.42-0.78
			c0.24-0.52,0.36-1.79,0.36-3.81V20.18z"/>
		<linearGradient id="SVGID_13_" gradientUnits="userSpaceOnUse" x1="208.729" y1="2.1343" x2="208.729" y2="52.4194">
			<stop  offset="0" style="stop-color:#C84FE5"/>
			<stop  offset="0.1722" style="stop-color:#BF4FE5"/>
			<stop  offset="0.4592" style="stop-color:#A54FE5"/>
			<stop  offset="0.8235" style="stop-color:#7C4FE5"/>
			<stop  offset="1" style="stop-color:#654FE5"/>
		</linearGradient>
		<path class="st12" d="M309.48,3.06v5.77h-11.38V3.06H309.48z M309.48,11.05v36.29h-11.38V11.05H309.48z"/>
		<linearGradient id="SVGID_14_" gradientUnits="userSpaceOnUse" x1="208.729" y1="2.1343" x2="208.729" y2="52.4194">
			<stop  offset="0" style="stop-color:#C84FE5"/>
			<stop  offset="0.1722" style="stop-color:#BF4FE5"/>
			<stop  offset="0.4592" style="stop-color:#A54FE5"/>
			<stop  offset="0.8235" style="stop-color:#7C4FE5"/>
			<stop  offset="1" style="stop-color:#654FE5"/>
		</linearGradient>
		<path class="st13" d="M324.68,11.05l-0.19,3.34c0.8-1.33,1.78-2.33,2.94-3c1.16-0.67,2.49-1,4.01-1c1.9,0,3.45,0.45,4.65,1.34
			c1.2,0.89,1.98,2.02,2.32,3.38c0.35,1.36,0.52,3.62,0.52,6.79v25.43h-11.05V22.2c0-2.5-0.08-4.02-0.25-4.57s-0.62-0.82-1.37-0.82
			c-0.78,0-1.28,0.31-1.48,0.94c-0.2,0.63-0.3,2.31-0.3,5.04v24.53h-11.05V11.05H324.68z"/>
		<linearGradient id="SVGID_15_" gradientUnits="userSpaceOnUse" x1="208.729" y1="2.1343" x2="208.729" y2="52.4194">
			<stop  offset="0" style="stop-color:#C84FE5"/>
			<stop  offset="0.1722" style="stop-color:#BF4FE5"/>
			<stop  offset="0.4592" style="stop-color:#A54FE5"/>
			<stop  offset="0.8235" style="stop-color:#7C4FE5"/>
			<stop  offset="1" style="stop-color:#654FE5"/>
		</linearGradient>
		<path class="st14" d="M352.6,25.1h-10.36v-2.43c0-2.81,0.32-4.97,0.97-6.49c0.65-1.52,1.95-2.87,3.9-4.03
			c1.95-1.17,4.48-1.75,7.6-1.75c3.74,0,6.55,0.66,8.45,1.98c1.9,1.32,3.04,2.94,3.42,4.87c0.38,1.92,0.57,5.88,0.57,11.88v18.21
			H356.4V44.1c-0.67,1.3-1.54,2.27-2.61,2.92c-1.07,0.65-2.34,0.97-3.81,0.97c-1.93,0-3.71-0.54-5.32-1.63s-2.42-3.46-2.42-7.12
			v-2.98c0-2.72,0.43-4.57,1.29-5.55c0.86-0.98,2.98-2.13,6.37-3.45c3.63-1.42,5.57-2.38,5.82-2.87c0.25-0.49,0.38-1.49,0.38-3.01
			c0-1.9-0.14-3.13-0.42-3.71c-0.28-0.57-0.75-0.86-1.41-0.86c-0.75,0-1.21,0.24-1.39,0.72c-0.18,0.48-0.27,1.74-0.27,3.76V25.1z
			 M356.1,30.08c-1.77,1.29-2.79,2.38-3.08,3.25c-0.28,0.88-0.42,2.13-0.42,3.77c0,1.88,0.12,3.09,0.37,3.64s0.73,0.82,1.46,0.82
			c0.69,0,1.14-0.21,1.35-0.64c0.21-0.43,0.31-1.55,0.31-3.38V30.08z"/>
		<linearGradient id="SVGID_16_" gradientUnits="userSpaceOnUse" x1="208.729" y1="2.1343" x2="208.729" y2="52.4194">
			<stop  offset="0" style="stop-color:#C84FE5"/>
			<stop  offset="0.1722" style="stop-color:#BF4FE5"/>
			<stop  offset="0.4592" style="stop-color:#A54FE5"/>
			<stop  offset="0.8235" style="stop-color:#7C4FE5"/>
			<stop  offset="1" style="stop-color:#654FE5"/>
		</linearGradient>
		<path class="st15" d="M382,11.05l-0.44,4.77c1.6-3.42,3.93-5.23,6.97-5.43v12.77c-2.02,0-3.51,0.27-4.46,0.82
			c-0.95,0.55-1.53,1.31-1.75,2.28c-0.22,0.98-0.33,3.22-0.33,6.74v14.33h-11.05V11.05H382z"/>
		<linearGradient id="SVGID_17_" gradientUnits="userSpaceOnUse" x1="208.729" y1="2.1343" x2="208.729" y2="52.4194">
			<stop  offset="0" style="stop-color:#C84FE5"/>
			<stop  offset="0.1722" style="stop-color:#BF4FE5"/>
			<stop  offset="0.4592" style="stop-color:#A54FE5"/>
			<stop  offset="0.8235" style="stop-color:#7C4FE5"/>
			<stop  offset="1" style="stop-color:#654FE5"/>
		</linearGradient>
		<path class="st16" d="M414.12,11.05l-3.16,26.25c-0.5,4.16-0.92,6.99-1.25,8.5c-0.34,1.51-0.9,2.76-1.68,3.75
			c-0.78,0.98-1.87,1.71-3.27,2.17s-3.62,0.7-6.68,0.7h-6.7v-5.8c1.72,0,2.82-0.09,3.31-0.26c0.49-0.17,0.74-0.56,0.74-1.16
			c0-0.29-0.23-1.56-0.68-3.8l-6.05-30.35h10.03l3.63,24.5l1.77-24.5H414.12z"/>
	</g>
</g>
</svg>
